<?xml version="1.0" encoding="UTF-8"?>
<svg id="Layer_2" data-name="Layer 2" xmlns="http://www.w3.org/2000/svg" viewBox="0 0 1146.88 781.64">
  <defs>
    <style>
      .cls-1 {
        fill: none;
        stroke: #000;
        stroke-linecap: round;
        stroke-miterlimit: 10;
        stroke-width: 8px;
      }

      .cls-2 {
        font-family: GreatVibes-Regular, 'Great Vibes';
        font-size: 192.4px;
      }
    </style>
  </defs>
  <g id="Layer_2-2" data-name="Layer 2">
    <g>
      <path class="cls-1" d="M573.44,81.74c-121.6,0-220.17,98.57-220.17,220.17s98.57,220.17,220.17,220.17,220.17-98.57,220.17-220.17-98.57-220.17-220.17-220.17Z"/>
      <path class="cls-1" d="M472.33,168.3c28.1-21.3,63.13-33.94,101.11-33.94,92.54,0,167.55,75.02,167.55,167.55s-75.02,167.55-167.55,167.55-167.55-75.02-167.55-167.55c0-41.39,15.01-79.27,39.88-108.5"/>
      <polyline class="cls-1" points="523.24 87.49 482.43 46.68 525.11 4 629.47 4 670.72 45.25 623.64 87.49"/>
      <line class="cls-1" x1="482.43" y1="46.68" x2="670.72" y2="46.68"/>
      <line class="cls-1" x1="525.11" y1="4" x2="558.31" y2="82.25"/>
      <line class="cls-1" x1="629.47" y1="4" x2="597.76" y2="81.74"/>
    </g>
    <text class="cls-2" transform="translate(1.54 704.49)"><tspan x="0" y="0">Vinayak Designs</tspan></text>
  </g>
</svg>