<?xml version="1.0" encoding="UTF-8"?>
<svg id="Layer_2" data-name="Layer 2" xmlns="http://www.w3.org/2000/svg" viewBox="0 0 417.8 25.6">
  <defs>
    <style>
      .cls-1 {
        fill: #544744;
      }
    </style>
  </defs>
  <g id="OBJECTS">
    <g>
      <path class="cls-1" d="M193.28,16.1c.13,0,.26-.05,.35-.15l2.8-2.8c.2-.2,.2-.51,0-.71l-2.8-2.8c-.2-.2-.51-.2-.71,0l-2.8,2.8c-.2,.2-.2,.51,0,.71l2.8,2.8c.1,.1,.23,.15,.35,.15Zm0-5.39l2.09,2.09-2.09,2.09-2.09-2.09,2.09-2.09Z"/>
      <path class="cls-1" d="M417.3,12.3H242.74l-1.7-1.7h169.22c.28,0,.5-.22,.5-.5s-.22-.5-.5-.5H240.04L230.58,.15c-.19-.19-.52-.19-.71,0l-5.25,5.25L219.38,.15c-.2-.2-.51-.2-.71,0l-9.78,9.77L199.13,.15c-.2-.2-.51-.2-.71,0l-5.25,5.25L187.93,.15c-.2-.2-.51-.2-.71,0l-9.46,9.46H7.54c-.28,0-.5,.22-.5,.5s.22,.5,.5,.5H176.76l-1.7,1.7H.5c-.28,0-.5,.22-.5,.5s.22,.5,.5,.5H175.07l1.8,1.8H7.54c-.28,0-.5,.22-.5,.5s.22,.5,.5,.5H177.87l9.35,9.35c.09,.09,.22,.15,.35,.15s.26-.05,.35-.15l5.25-5.25,5.25,5.25c.1,.1,.23,.15,.35,.15s.26-.05,.35-.15l9.77-9.77,9.78,9.77c.1,.1,.23,.15,.35,.15s.26-.05,.35-.15l5.25-5.25,5.25,5.25c.09,.09,.22,.15,.35,.15s.26-.05,.35-.15l9.35-9.35h170.33c.28,0,.5-.22,.5-.5s-.22-.5-.5-.5H240.94l1.8-1.8h174.57c.28,0,.5-.22,.5-.5s-.22-.5-.5-.5Zm-229.73,12.09l-11.59-11.59,2.34-2.34s0,0,0,0l9.25-9.25,4.89,4.89-6.35,6.35c-.09,.09-.15,.22-.15,.35s.05,.26,.15,.35l6.35,6.35-4.89,4.89Zm5.6-17.59l5.99,5.99-5.99,5.99-5.99-5.99,5.99-5.99Zm5.6,17.59l-4.89-4.89,6.35-6.35c.2-.2,.2-.51,0-.71l-6.35-6.35,4.89-4.89,9.42,9.42-1.82,1.82c-.09,.09-.15,.22-.15,.35s.05,.26,.15,.35l1.82,1.82-9.42,9.42Zm10.13-13.06l1.46,1.46-1.46,1.46-1.46-1.46,1.46-1.46Zm10.13,13.06l-9.42-9.42,1.82-1.82c.09-.09,.15-.22,.15-.35s-.05-.26-.15-.35l-1.82-1.82,9.42-9.42,4.89,4.89-6.35,6.35c-.2,.2-.2,.51,0,.71l6.35,6.35-4.89,4.89Zm5.6-17.59l5.99,5.99-5.99,5.99-5.99-5.99,5.99-5.99Zm5.6,17.59l-4.89-4.89,6.35-6.35c.09-.09,.15-.22,.15-.35s-.05-.26-.15-.35l-6.35-6.35,4.89-4.89,11.59,11.59-11.59,11.59Z"/>
      <path class="cls-1" d="M224.87,15.95l2.8-2.8c.2-.2,.2-.51,0-.71l-2.8-2.8c-.2-.2-.51-.2-.71,0l-2.8,2.8c-.2,.2-.2,.51,0,.71l2.8,2.8c.1,.1,.23,.15,.35,.15s.26-.05,.35-.15Zm-2.45-3.15l2.09-2.09,2.09,2.09-2.09,2.09-2.09-2.09Z"/>
    </g>
  </g>
</svg>