<?xml version="1.0" encoding="UTF-8"?>
<svg id="Layer_2" data-name="Layer 2" xmlns="http://www.w3.org/2000/svg" viewBox="0 0 204.77 15.93">
  <defs>
    <style>
      .cls-1 {
        fill: none;
        stroke: #000;
        stroke-linecap: round;
        stroke-miterlimit: 10;
      }
    </style>
  </defs>
  <g id="Layer_2-2" data-name="Layer 2">
    <g>
      <path class="cls-1" d="M96.2,6.59c-.1,.88,.37,1.67,1.06,1.91,.79,.28,1.56-.25,1.91-.68,.72-.88,.5-2.31-.17-3.11-1.05-1.24-3.33-1.1-4.47-.09-1.67,1.49-1.05,5.01,.72,6.17,2.11,1.37,6.07-.43,6.94-3.23,.8-2.62-1.1-6.09-4.77-7.06H6.37c-.14,0-3.45,.12-5.04,2.98-.82,1.48-1.27,3.7-.19,5.23,.15,.21,1.05,1.49,2.36,1.34,.97-.11,1.94-.97,1.98-2.04,.03-.89-.57-2.01-1.47-2.04-.72-.03-1.54,.64-1.53,1.4,0,.44,.28,1.03,.83,1.15,.5,.11,1.14-.18,1.21-.7,.06-.46-.35-.97-.96-1.02"/>
      <path d="M100.36,10.34c.11,1.98,.64,4.07,2.02,5.58-1.66-1.33-2.57-3.42-3.01-5.49,0,0,1-.1,1-.1h0Z"/>
      <path class="cls-1" d="M108.57,6.59c.1,.88-.37,1.67-1.06,1.91-.79,.28-1.56-.25-1.91-.68-.72-.88-.5-2.31,.17-3.11,1.05-1.24,3.33-1.1,4.47-.09,1.67,1.49,1.05,5.01-.72,6.17-2.11,1.37-6.07-.43-6.94-3.23-.8-2.62,1.1-6.09,4.77-7.06h91.06c.14,0,3.45,.12,5.04,2.98,.82,1.48,1.27,3.7,.19,5.23-.15,.21-1.05,1.49-2.36,1.34-.97-.11-1.94-.97-1.98-2.04-.03-.89,.57-2.01,1.47-2.04,.72-.03,1.54,.64,1.53,1.4,0,.44-.28,1.03-.83,1.15-.5,.11-1.14-.18-1.21-.7-.06-.46,.35-.97,.96-1.02"/>
      <path d="M105.4,10.44c-.45,2.06-1.35,4.15-3.01,5.49,.7-.77,1.17-1.69,1.49-2.65,.3-.94,.49-1.97,.53-2.94,0,0,1,.1,1,.1h0Z"/>
    </g>
  </g>
</svg>