<?xml version="1.0" encoding="UTF-8"?>
<svg id="Layer_2" data-name="Layer 2" xmlns="http://www.w3.org/2000/svg" viewBox="0 0 415.47 58.56">
  <defs>
    <style>
      .cls-1 {
        fill: #544744;
      }
    </style>
  </defs>
  <g id="OBJECTS">
    <path class="cls-1" d="M414.97,17.39H244.98c-.54,.68-1.19,1.28-1.97,1.77h164.91c.28,0,.5,.22,.5,.5s-.22,.5-.5,.5h-125.87c1.23,.3,2.26,1.04,2.98,2.2,1.16,1.86,1.4,4.58,.8,7.31,0,.1-.01,.2-.07,.29,0,0,0,0,0,0-.32,1.34-.82,2.68-1.54,3.92-2.61,4.46-7.25,6.88-12.69,6.63-3.66-.17-6.05-1.56-8.07-3.53,1.48,2.45,4.71,5.81,11.45,6.16,.24,.01,.43,.19,.47,.42,.04,.23-.09,.46-.32,.54-.08,.03-2.07,.78-4.54,.78-3.16,0-8.55-1.34-9.19-10.31-.41-.52-.83-1.05-1.25-1.59-1.24-1.61-2.54-3.28-4.15-4.85-.02-.02-.04-.03-.05-.05-2.7-2.63-6.29-4.96-11.98-6.22,.25,.2,.48,.4,.66,.6,1.3,1.36,2.05,3.22,2.05,5.12,0,.77-.14,1.56-.4,2.29,0,0,0,0,0,.01-.7,1.92-2.34,3.48-5.04,3.48-1.59,0-2.88-1.26-2.88-2.81,0-1.3,1.08-2.35,2.41-2.35,1.12,0,2.03,.89,2.03,1.98,0,.28-.22,.5-.5,.5s-.5-.22-.5-.5c0-.54-.46-.98-1.03-.98-.78,0-1.41,.61-1.41,1.35,0,1,.85,1.81,1.88,1.81,2.15,0,3.45-1.19,4.04-2.71-.33-.8-1.92-4.17-5.45-5.74-2.59-1.15-5.66-1.09-9.13,.15,1.38,1.04,2.55,2.36,3.48,3.94,.81,1.39,1.37,2.92,1.67,4.43,.13,.06,.23,.18,.27,.32,.08,.33,2.11,8.19,12.58,8.74,.24,.01,.43,.19,.47,.42,.04,.23-.09,.46-.32,.54-.08,.03-2.07,.78-4.54,.78s-6.66-.9-8.41-6.13c-.18,.89-.49,1.71-.92,2.41-1.03,1.66-2.69,2.48-4.69,2.34-2.13-.16-3.74-1.78-3.74-3.77,0-1.72,1.4-3.12,3.12-3.12,1.43,0,2.6,1.16,2.6,2.6,0,.28-.22,.5-.5,.5s-.5-.22-.5-.5c0-.88-.72-1.6-1.6-1.6-1.17,0-2.12,.95-2.12,2.12,0,1.49,1.18,2.66,2.81,2.78,1.64,.11,2.93-.53,3.76-1.87,1.58-2.54,1.24-6.95-.83-10.48-.69-1.18-1.86-2.73-3.67-3.98-.37,.26-.74,.52-1.12,.79-4.35,3.11-9.74,6.93-19.8,6.82-.15,.18-.29,.36-.45,.54v8.22c.33,.77,3.16,6.86,9.64,7.33,.21,.02,.4,.17,.45,.38,.05,.21-.04,.43-.22,.54-.09,.06-2.29,1.43-4.72,1.43-1.25,0-2.34-.37-3.24-1.09,.32,2.35,.41,6.4-2.06,8.92-.19,.19-.53,.19-.71,0-2.47-2.52-2.37-6.58-2.06-8.92-.9,.72-1.99,1.09-3.24,1.09-2.43,0-4.63-1.37-4.72-1.43-.18-.12-.27-.33-.22-.54,.05-.21,.23-.36,.45-.38,6.47-.48,9.31-6.58,9.64-7.34v-8.21c-.16-.18-.3-.36-.45-.54-10.04,.11-15.45-3.72-19.8-6.82-.38-.27-.75-.54-1.12-.8-1.81,1.25-2.98,2.81-3.67,3.99-2.07,3.53-2.41,7.94-.83,10.48,.84,1.34,2.15,1.99,3.76,1.87,1.63-.12,2.81-1.29,2.81-2.78,0-1.17-.95-2.12-2.12-2.12-.88,0-1.6,.72-1.6,1.6,0,.28-.22,.5-.5,.5s-.5-.22-.5-.5c0-1.43,1.16-2.6,2.6-2.6,1.72,0,3.12,1.4,3.12,3.12,0,1.99-1.61,3.62-3.74,3.77-1.99,.14-3.65-.68-4.69-2.34-.44-.7-.74-1.52-.92-2.42-1.75,5.23-5.82,6.14-8.4,6.14s-4.45-.75-4.54-.78c-.22-.08-.35-.31-.31-.54,.04-.23,.23-.41,.47-.42,10.48-.54,12.5-8.4,12.59-8.74,.04-.15,.14-.26,.27-.32,.3-1.51,.86-3.04,1.67-4.43,.92-1.58,2.1-2.9,3.48-3.94-3.47-1.24-6.54-1.3-9.13-.15-3.53,1.57-5.12,4.95-5.45,5.74,.6,1.52,1.9,2.71,4.05,2.71,1.04,0,1.88-.81,1.88-1.81,0-.75-.63-1.35-1.41-1.35-.57,0-1.03,.44-1.03,.98,0,.28-.22,.5-.5,.5s-.5-.22-.5-.5c0-1.09,.91-1.98,2.03-1.98,1.33,0,2.41,1.06,2.41,2.35,0,1.55-1.29,2.81-2.88,2.81-2.7,0-4.33-1.56-5.03-3.48,0,0,0-.01,0-.02-.27-.73-.4-1.52-.4-2.29,0-1.9,.75-3.76,2.05-5.12,.19-.2,.42-.4,.66-.6-5.69,1.26-9.28,3.59-11.98,6.22-.01,.02-.03,.03-.05,.05-1.61,1.57-2.9,3.24-4.15,4.85-.41,.54-.82,1.06-1.23,1.57,0,.05,0,.09-.02,.13-.67,8.86-6.03,10.19-9.18,10.19-2.47,0-4.45-.75-4.54-.78-.22-.08-.35-.31-.31-.54,.04-.23,.23-.41,.47-.42,6.73-.35,9.97-3.71,11.45-6.16-2.02,1.98-4.4,3.37-8.07,3.53-5.45,.25-10.08-2.17-12.69-6.63-.72-1.23-1.22-2.58-1.55-3.92h0c-.06-.09-.07-.19-.07-.28-.59-2.73-.36-5.45,.8-7.31,.72-1.16,1.75-1.9,2.98-2.2H7.54c-.28,0-.5-.22-.5-.5s.22-.5,.5-.5H172.45c-.8-.51-1.47-1.13-2.02-1.84-.15,.04-.38,.07-.75,.07H.5c-.28,0-.5-.22-.5-.5s.22-.5,.5-.5H169.69s.08,0,.13,.01c-.35-.61-.6-1.25-.78-1.88H7.54c-.28,0-.5-.22-.5-.5s.22-.5,.5-.5H168.83c-.49-3.13,.6-6.04,.66-6.2,.07-.2,.26-.32,.47-.32,.03,0,.05,0,.08,0,.23,.04,.41,.23,.42,.47,.54,10.48,8.4,12.51,8.74,12.59,.14,.03,.25,.13,.31,.24,.07,.01,.15,.03,.22,.04-2.02-1.29-4.93-3.99-4.9-8.81,.07-11.42,9.75-11.54,9.87-11.54h0c.08,0,.15,.02,.22,.06,.18-.02,.36-.05,.53-.05,1.16,0,2.28,.43,3.26,1.27,1.62,1.39,1.95,3.65,.77,5.26-1.02,1.38-2.98,1.68-4.36,.66-1.15-.85-1.4-2.48-.55-3.63,.16-.22,.48-.27,.7-.11,.22,.16,.27,.48,.11,.7-.52,.71-.37,1.71,.34,2.23,.94,.69,2.27,.49,2.96-.45,.88-1.2,.62-2.84-.62-3.9-1.24-1.06-2.67-1.31-4.14-.73-2.78,1.1-5.12,4.86-5.55,8.93-.28,2.63,.03,7.43,4.86,11.21-.89-1.68-.94-3.27-.82-4.28,.28-2.53,1.84-4.76,3.98-5.69,.68-.3,1.37-.44,2.06-.44,1.1,0,2.19,.37,3.19,1.11,1.28,.94,1.57,2.73,.65,3.98-.37,.51-.93,.83-1.56,.92-.63,.09-1.26-.08-1.77-.46-.9-.66-1.1-1.92-.46-2.8,.16-.22,.48-.27,.7-.11,.22,.16,.27,.48,.11,.7-.32,.43-.21,1.06,.25,1.4,.3,.23,.68,.32,1.04,.27,.36-.05,.68-.23,.89-.52,.59-.81,.4-1.96-.44-2.58-1.33-.98-2.84-1.18-4.25-.56-1.78,.78-3.14,2.74-3.38,4.89-.15,1.33,.02,3.79,2.61,6.01,2.1-1.25,4.56-1.93,7.26-1.93,.25,0,.5,0,.76,.02,1.04,.05,1.97,.2,2.83,.43,.04-.01,.09-.03,.14-.03,.3,0,.59,.01,.88,.02-2.56-1.55-4.14-3.47-4.68-5.75-1.11-4.63,2.44-8.92,2.59-9.1,.1-.12,.24-.18,.38-.18h.01c.27,.02,.51,.22,.51,.5,0,.1-.03,.19-.08,.26-2.82,9.99,3.89,14.44,4.17,14.63,.03,.02,.05,.05,.08,.07,4.37,1.15,6.16,4.21,6.89,6.49,.73-2.27,2.52-5.34,6.89-6.49,.03-.02,.05-.05,.08-.07,.29-.19,7.05-4.67,4.14-14.75-.07-.23,.04-.47,.25-.58,.07-.04,.16-.06,.24-.06,.14,0,.29,.06,.38,.18,.15,.18,3.7,4.47,2.59,9.1-.54,2.27-2.12,4.2-4.68,5.75,.29-.01,.58-.02,.88-.02,.05,0,.09,.01,.14,.03,.86-.23,1.79-.38,2.83-.43,.25-.01,.51-.02,.76-.02,2.69,0,5.16,.68,7.26,1.93,2.59-2.22,2.75-4.68,2.61-6.01-.24-2.14-1.6-4.11-3.38-4.89-1.41-.62-2.93-.42-4.25,.56-.41,.3-.68,.74-.76,1.23-.08,.48,.03,.97,.32,1.35,.21,.29,.53,.47,.89,.52,.37,.05,.74-.05,1.04-.27,.46-.34,.57-.96,.25-1.4-.16-.22-.12-.54,.11-.7,.22-.16,.54-.12,.7,.11,.65,.88,.44,2.13-.46,2.8-.52,.38-1.14,.54-1.77,.46-.63-.09-1.19-.41-1.56-.92-.45-.61-.63-1.36-.5-2.11,.12-.75,.53-1.41,1.15-1.87,1-.74,2.09-1.11,3.19-1.11,.69,0,1.38,.15,2.06,.44,2.13,.93,3.69,3.16,3.98,5.69,.11,1.01,.07,2.6-.82,4.28,4.83-3.78,5.14-8.58,4.86-11.21-.43-4.07-2.77-7.82-5.55-8.93-1.47-.59-2.91-.33-4.14,.73-1.24,1.06-1.5,2.71-.62,3.9,.7,.94,2.02,1.14,2.96,.45,.71-.52,.86-1.52,.34-2.23-.16-.22-.12-.54,.11-.7,.22-.16,.54-.12,.7,.11,.85,1.15,.6,2.78-.55,3.63-1.38,1.02-3.34,.73-4.36-.66-1.18-1.61-.85-3.86,.77-5.26,.98-.84,2.1-1.27,3.26-1.27,.18,0,.35,.03,.53,.05,.07-.03,.14-.06,.22-.06h0c.12,0,9.8,.12,9.87,11.54,.03,4.82-2.88,7.51-4.9,8.81,.07-.02,.15-.03,.22-.04,.07-.12,.17-.21,.31-.24,.33-.08,8.19-2.11,8.74-12.59,.01-.24,.19-.43,.42-.47,.03,0,.05,0,.08,0,.21,0,.39,.13,.47,.32,.06,.16,1.15,3.07,.66,6.2h161.29c.28,0,.5,.22,.5,.5s-.22,.5-.5,.5H246.43c-.17,.64-.43,1.27-.78,1.88,.05,0,.09-.01,.13-.01h169.19c.28,0,.5,.22,.5,.5s-.22,.5-.5,.5Zm-144.43,26.49c.53,0,1.03-.04,1.5-.1-4.91-.98-7.66-3.7-9.14-5.92,1.37,4.88,4.77,6.02,7.64,6.02Zm-26.26-1.64c.53,0,1.03-.04,1.5-.1-4.91-.98-7.66-3.7-9.13-5.92,1.37,4.88,4.77,6.02,7.64,6.02Zm-74.59-.1c3.01,.37,7.52-.14,9.14-5.92-1.47,2.22-4.22,4.94-9.14,5.92Zm-26.26,1.64c3,.37,7.52-.14,9.14-5.92-1.47,2.22-4.22,4.94-9.14,5.92ZM195.07,9.95c-.76,1.56-1.44,3.71-.92,5.88,.43,1.8,1.62,3.36,3.53,4.68-1.62-2.11-3.29-5.6-2.61-10.56Zm26.25,5.88c.52-2.17-.15-4.32-.92-5.88,.67,4.97-1,8.45-2.61,10.56,1.92-1.32,3.1-2.89,3.53-4.68Zm53.68,9.99c0-2.39-1.37-4.79-4.44-4.79-1.04,0-1.88,.81-1.88,1.81,0,.75,.63,1.35,1.41,1.35,.57,0,1.03-.44,1.03-.98,0-.28,.22-.5,.5-.5s.5,.22,.5,.5c0,1.09-.91,1.98-2.03,1.98-1.33,0-2.41-1.05-2.41-2.35s.85-2.31,2.02-2.67h-26.57c6.17,.81,10.23,4.06,13.87,6.98,.32,.26,.63,.51,.95,.75,11.11,4.24,16.1-.38,17.01-1.37,.03-.24,.04-.47,.04-.71Zm-14.53,3.97c2.21,1.52,4.47,2.57,7.24,2.57,2.29,0,4.2-.73,5.52-2.11,.55-.58,.99-1.26,1.29-2-2.05,1.53-6.5,3.62-14.05,1.54Zm11.12,9.73c6.94,.31,10.36-3.71,11.78-6.13,.13-.22,.23-.46,.35-.69-6.67,7.56-15.05,5.6-19.14,3.94,1.8,1.64,3.9,2.73,7.02,2.87Zm-10.69-7.13c.61,.79,1.19,1.53,1.78,2.23,1.05,.64,13.7,7.97,22.19-5.1,.56-2.5,.37-4.96-.67-6.62-.84-1.34-2.12-1.99-3.76-1.87-1.63,.12-2.81,1.29-2.81,2.78,0,1.17,.95,2.12,2.12,2.12,.88,0,1.6-.72,1.6-1.6,0-.28,.22-.5,.5-.5s.5,.22,.5,.5c0,1.43-1.16,2.6-2.6,2.6-1.72,0-3.12-1.4-3.12-3.12s1.21-3.17,2.92-3.63h-7.64c2.81,.63,4.1,3.22,4.1,5.65,0,.23-.01,.47-.03,.7,.05,.15,.03,.31-.06,.44-.23,1.49-.91,2.9-1.95,3.98-1.06,1.1-3,2.42-6.24,2.42-3.42,0-6.13-1.49-8.75-3.41,.69,.82,1.32,1.64,1.93,2.43Zm-25.16-10.29c1.6,0,3.1,.31,4.48,.93,2.89,1.29,4.56,3.62,5.39,5.11,.02-.18,.04-.36,.04-.54,0-1.64-.65-3.25-1.77-4.43-.92-.96-2.13-1.6-3.54-1.9-.66-.08-1.33-.15-2.04-.21-1.94,.01-3.61,.52-5.2,1.32,.91-.17,1.79-.28,2.64-.28Zm-36.43,26.9c.77,.3,1.76,.59,2.78,.59,1.57,0,2.79-.69,3.64-2.05,.13-.21,.4-.29,.62-.19,.23,.1,.35,.35,.28,.59-.02,.06-1.57,6.06,1.1,9.39,2.67-3.33,1.12-9.32,1.1-9.39-.06-.24,.06-.49,.28-.59,.23-.1,.49-.02,.62,.19,.85,1.36,2.08,2.05,3.64,2.05,1.02,0,2.02-.29,2.78-.59-4.81-1.07-7.44-5.01-8.44-6.85-.99,1.84-3.63,5.78-8.44,6.85Zm-27.7-25.83c-1.12,1.17-1.77,2.79-1.77,4.43,0,.18,.02,.36,.04,.54,.83-1.49,2.5-3.81,5.39-5.11,1.38-.62,2.88-.93,4.48-.93,.85,0,1.73,.1,2.64,.28-1.59-.8-3.26-1.31-5.2-1.32-.71,.06-1.38,.13-2.04,.21-1.42,.3-2.62,.94-3.54,1.9Zm-26.21,2.03c-1.12,0-2.03-.89-2.03-1.98,0-.28,.22-.5,.5-.5s.5,.22,.5,.5c0,.54,.46,.98,1.03,.98,.78,0,1.41-.61,1.41-1.35,0-1-.85-1.81-1.88-1.81-3.07,0-4.44,2.41-4.44,4.79,0,.24,.02,.48,.04,.71,.9,.99,5.9,5.61,17.01,1.37,.31-.25,.63-.5,.95-.75,3.64-2.92,7.7-6.17,13.87-6.98h-26.57c1.17,.36,2.02,1.42,2.02,2.67s-1.08,2.35-2.41,2.35Zm-4.44,3.05c.3,.74,.74,1.43,1.29,2,1.32,1.38,3.23,2.11,5.52,2.11,2.77,0,5.03-1.06,7.24-2.58-7.55,2.08-12-.01-14.05-1.54Zm-8.84,5.13c1.42,2.43,4.82,6.44,11.78,6.13,3.12-.14,5.22-1.23,7.02-2.88-4.1,1.66-12.48,3.62-19.15-3.95,.12,.23,.22,.46,.35,.69Zm3.63-6.46c-1.43,0-2.6-1.16-2.6-2.6,0-.28,.22-.5,.5-.5s.5,.22,.5,.5c0,.88,.72,1.6,1.6,1.6,1.17,0,2.12-.95,2.12-2.12,0-1.49-1.18-2.66-2.81-2.78-1.63-.12-2.93,.53-3.77,1.87-1.04,1.66-1.23,4.13-.67,6.62,8.49,13.06,21.14,5.74,22.19,5.1,.59-.7,1.17-1.45,1.78-2.23,.61-.79,1.25-1.61,1.93-2.44-2.61,1.92-5.32,3.41-8.75,3.41-3.24,0-5.19-1.32-6.24-2.42-1.04-1.08-1.72-2.5-1.95-3.98-.09-.13-.11-.29-.06-.44-.02-.23-.03-.46-.03-.7,0-2.43,1.29-5.02,4.1-5.65h-7.64c1.71,.46,2.92,1.9,2.92,3.63s-1.4,3.12-3.12,3.12Zm34.07-16.55c-.21,1.72-.15,3.97,1.06,5.86,1,1.56,2.63,2.65,4.87,3.28-2.22-1.47-4.94-4.22-5.93-9.14Zm7.57-.23c.36-3.39,1.97-6.58,4.11-8.45-2.53,1.02-5.62,3.55-5.66,9.86-.02,3.95,2.08,6.3,3.82,7.57-1.81-2.6-2.63-5.7-2.28-8.98Zm16.6,12.25c-3.03-.14-5.38,.55-7.19,1.57,.26,.19,.52,.37,.79,.56,4.32,3.09,9.19,6.56,18.39,6.65-.45-.56-.87-1.11-1.29-1.65-2.98-3.85-5.33-6.89-10.69-7.13Zm5.68,.62c2.31,1.4,3.99,3.55,5.8,5.89,.56,.73,1.15,1.47,1.76,2.21-.1-1.41-.94-6.93-7.56-8.1Zm8.6,8.1c.61-.74,1.2-1.49,1.76-2.21,1.82-2.35,3.49-4.49,5.8-5.89-6.62,1.18-7.46,6.69-7.56,8.1Zm13.25-8.73c-5.37,.24-7.72,3.28-10.69,7.13-.42,.54-.85,1.09-1.29,1.65,9.21-.09,14.07-3.56,18.39-6.65,.26-.19,.52-.37,.78-.56-1.82-1.02-4.17-1.71-7.19-1.57Zm18.15-10.84c-.04-6.28-3.11-8.81-5.64-9.84,2.12,1.87,3.73,5.05,4.09,8.43,.35,3.28-.46,6.38-2.28,8.98,1.75-1.27,3.85-3.62,3.82-7.57Zm6.02-1.17c-.99,4.91-3.71,7.66-5.92,9.13,2.24-.62,3.87-1.71,4.87-3.27,1.2-1.88,1.27-4.14,1.06-5.86Z"/>
  </g>
</svg>