<?xml version="1.0" encoding="UTF-8"?>
<svg id="Layer_2" data-name="Layer 2" xmlns="http://www.w3.org/2000/svg" viewBox="0 0 375.22 24.44">
  <defs>
    <style>
      .cls-1 {
        fill: none;
        stroke: #00000011;
        stroke-linecap: round;
        stroke-linejoin: round;
        stroke-width: 0.6px;
      }
	  .star {
		fill: #00000011;
	  }
    </style>
  </defs>
  <g id="objects">
    <g>
      <g>
        <path class="star" d="M175.39,12.22h0c6.75,0,12.22-5.47,12.22-12.22h0c0,6.75,5.47,12.22,12.22,12.22h0c-6.75,0-12.22,5.47-12.22,12.22h0c0-6.75-5.47-12.22-12.22-12.22Z"/>
        <path class="star" d="M161.59,12.22h0c3.37,0,6.11-2.74,6.11-6.11h0c0,3.37,2.74,6.11,6.11,6.11h0c-3.37,0-6.11,2.74-6.11,6.11h0c0-3.37-2.74-6.11-6.11-6.11Z"/>
        <path class="star" d="M201.41,12.22h0c3.37,0,6.11-2.74,6.11-6.11h0c0,3.37,2.74,6.11,6.11,6.11h0c-3.37,0-6.11,2.74-6.11,6.11h0c0-3.37-2.74-6.11-6.11-6.11Z"/>
      </g>
      <g>
        <line class="cls-1" x1="7.21" y1="12.22" x2="155.27" y2="12.22"/>
        <circle class="star" cx="4.21" cy="12.22" r="2.21"/>
        <line class="cls-1" x1="368.01" y1="12.22" x2="219.95" y2="12.22"/>
        <circle class="star" cx="371.01" cy="12.22" r="2.21"/>
      </g>
    </g>
  </g>
</svg>