<?xml version="1.0" encoding="UTF-8"?>
<svg id="Layer_2" data-name="Layer 2" xmlns="http://www.w3.org/2000/svg" viewBox="0 0 417.8 26.11">
  <defs>
    <style>
      .cls-1 {
        fill: #544744;
      }
    </style>
  </defs>
  <g id="OBJECTS">
    <g>
      <path class="cls-1" d="M195.06,.15c-.19-.19-.52-.19-.71,0l-7.84,7.84-4.01-4.01c-.09-.09-.22-.15-.35-.15s-.26,.05-.35,.15l-4.01,4.01-4.01-4.01c-.2-.2-.51-.2-.71,0l-5.8,5.8H7.54c-.28,0-.5,.22-.5,.5s.22,.5,.5,.5H166.27l-1.77,1.77H.5c-.28,0-.5,.22-.5,.5s.22,.5,.5,.5H164.5l1.87,1.87H7.54c-.28,0-.5,.22-.5,.5s.22,.5,.5,.5H167.12c.08,0,.14-.02,.21-.05l5.75,5.75c.09,.09,.22,.15,.35,.15s.26-.05,.35-.15l4.01-4.01,4.01,4.01c.09,.09,.22,.15,.35,.15s.26-.05,.35-.15l4.01-4.01,7.84,7.84c.1,.1,.23,.15,.35,.15s.26-.05,.35-.15l12.56-12.55c.09-.09,.15-.22,.15-.35s-.05-.26-.15-.35L195.06,.15Zm-12.91,4.9l3.65,3.65-3.65,3.65-3.65-3.65,3.65-3.65Zm4.36,4.36l3.65,3.65-3.65,3.65-3.65-3.65,3.65-3.65Zm-5.07,3.65l-3.65,3.65-3.65-3.65,3.65-3.65,3.65,3.65Zm-8.01,8.01l-8.01-8.01,8.01-8.01,3.65,3.65-4.01,4.01c-.09,.09-.15,.22-.15,.35s.05,.26,.15,.35l4.01,4.01-3.65,3.65Zm8.72,0l-3.65-3.65,3.65-3.65,3.65,3.65-3.65,3.65Zm12.55,3.83l-7.49-7.49,3.7-3.7,3.74,3.74c.1,.1,.23,.15,.35,.15s.26-.05,.35-.15l3.99-3.99c.09-.09,.15-.22,.15-.35s-.05-.26-.15-.35l-3.99-3.99c-.2-.2-.51-.2-.71,0l-3.69,3.69-3.75-3.75,7.49-7.49,11.85,11.85-11.85,11.85Zm-2.98-11.8l3.28-3.28,3.28,3.28-3.28,3.28-3.28-3.28Z"/>
      <path class="cls-1" d="M417.3,12.56H251.17l-1.77-1.77h160.86c.28,0,.5-.22,.5-.5s-.22-.5-.5-.5H248.4l-5.8-5.8c-.2-.2-.51-.2-.71,0l-4.01,4.01-4.01-4.01c-.2-.2-.51-.2-.71,0l-4.01,4.01L221.32,.15c-.09-.09-.22-.15-.35-.15s-.26,.05-.35,.15l-12.56,12.56c-.09,.09-.15,.22-.15,.35s.05,.26,.15,.35l12.56,12.55c.1,.1,.23,.15,.35,.15s.26-.05,.35-.15l7.84-7.84,4.01,4.01c.09,.09,.22,.15,.35,.15s.26-.05,.35-.15l4.01-4.01,4.01,4.01c.09,.09,.22,.15,.35,.15s.26-.05,.35-.15l5.75-5.75c.06,.03,.13,.05,.21,.05h161.7c.28,0,.5-.22,.5-.5s-.22-.5-.5-.5H249.3l1.87-1.87h166.13c.28,0,.5-.22,.5-.5s-.22-.5-.5-.5ZM233.52,5.04l3.65,3.65-3.65,3.65-3.65-3.65,3.65-3.65Zm4.36,4.36l3.65,3.65-3.65,3.65-3.65-3.65,3.65-3.65Zm-5.07,3.65l-3.65,3.65-3.65-3.65,3.65-3.65,3.65,3.65Zm-11.85,11.85l-11.85-11.85,11.85-11.85,7.49,7.49-3.75,3.75-3.69-3.68c-.2-.2-.51-.2-.71,0l-3.99,3.99c-.09,.09-.15,.22-.15,.35s.05,.26,.15,.35l3.99,3.99c.1,.1,.23,.15,.35,.15s.26-.05,.35-.15l3.74-3.74,3.7,3.7-7.49,7.49Zm2.98-11.8l-3.28,3.28-3.28-3.28,3.28-3.28,3.28,3.28Zm9.57,7.96l-3.65-3.65,3.65-3.65,3.65,3.65-3.65,3.65Zm8.72,0l-3.65-3.65,4.01-4.01c.09-.09,.15-.22,.15-.35s-.05-.26-.15-.35l-4.01-4.01,3.65-3.65,5.59,5.59h0s2.42,2.42,2.42,2.42l-8.01,8.01Z"/>
    </g>
  </g>
</svg>